<svg width="781" height="781" viewBox="0 0 781 781" fill="none" xmlns="http://www.w3.org/2000/svg">
<path d="M21.3228 515.652C-47.6322 311.596 61.8881 90.2779 265.943 21.3229C469.998 -47.6322 691.317 61.8881 760.272 265.943C829.227 469.998 719.707 691.317 515.651 760.272C311.596 829.227 90.2778 719.707 21.3228 515.652ZM738.149 273.419C673.323 81.5821 465.256 -21.3805 273.419 43.4458C81.582 108.272 -21.3805 316.339 43.4457 508.176C108.272 700.013 316.339 802.975 508.176 738.149C700.013 673.323 802.975 465.256 738.149 273.419Z" fill="black"/>
<path fill-rule="evenodd" clip-rule="evenodd" d="M498 287C453.587 240.347 398.5 246.845 378.5 252C358.5 257.154 332.731 260.402 314.5 223.5C286.731 183.402 267 132 267 132C267 132 254 156 248 201C236 191.5 230 132 230 132C230 132 168.5 223.5 180 363.5C191.5 503.5 110.664 627.5 110.664 627.5L104.715 656L139.362 689L227 744.734L359.5 779.64L376 757.246C383.266 698.699 395.046 603.695 409.5 579.139C421.598 558.587 459.832 544.474 507.087 527.031C540.106 514.842 577.529 501.028 613.519 482.256C639.279 468.819 645.904 391.681 635.565 372.205C629.098 360.024 605.272 362.021 584.537 363.759C572.117 364.799 560.806 365.747 555 363.5C539.5 357.5 525.5 328.5 525.5 328.5C525.5 328.5 515.043 304.903 498 287ZM389 371C385.6 362.5 392.5 350.5 398 347C391.602 341.549 388.963 341.842 387.793 341.973C387.683 341.985 387.586 341.996 387.5 342C372.516 342.772 373 362.5 376 376.5C379 390.5 395.224 412.828 398 410.5C415 404 421 397.5 421 397.5C421 397.5 418.619 385.788 414 380C405.5 382 392.4 379.5 389 371Z" fill="black"/>
</svg>
